<svg xmlns="http://www.w3.org/2000/svg" version="1.1" xmlns:xlink="http://www.w3.org/1999/xlink" xmlns:svgjs="http://svgjs.dev/svgjs" width="1000" height="1125" viewBox="0 0 1000 1125"><g transform="matrix(1,0,0,1,0,0)"><svg viewBox="0 0 320 360" data-background-color="#ffffff" preserveAspectRatio="xMidYMid meet" height="1125" width="1000" xmlns="http://www.w3.org/2000/svg" xmlns:xlink="http://www.w3.org/1999/xlink"><g id="tight-bounds" transform="matrix(1,0,0,1,0,0)"><svg viewBox="0 0 320 360" height="360" width="320"><g><svg></svg></g><g><svg viewBox="0 0 320 360" height="360" width="320"><g><path xmlns="http://www.w3.org/2000/svg" d="M219.58 41.008c0.707 0 6.365 2.829 9.547 3.89-1.061 0.354-3.536-0.707-6.365-1.768 0.707 0 2.122 0.354 3.536 1.06-0.707-0.707-6.011-2.475-6.718-3.182M166.895 30.047c1.061-0.354 13.436 1.414 19.094 1.768 0.354-0.354-0.707-0.354-2.122-0.707 1.768-0.354 5.304 0.707 7.779 1.06-7.425 0.354-15.558-1.768-22.629-1.06-2.475 0-0.707-0.707-2.122-1.061M156.641 30.047c6.365 0 11.315 0 2.121 0.707-1.061-0.354-2.475-0.354-2.121-0.707M256.707 59.395c0.707 0 3.536 3.182 4.95 4.243-0.354 0.354-3.182-2.475-4.596-3.536 0.354 0.354 0 0-0.354-0.707M249.635 54.798c-2.829-2.475-3.889-2.475-4.243-3.889 2.475 1.414 4.243 2.829 4.243 3.889M204.022 32.522c0.354-0.354 1.061 0.354 2.829 0.707-2.122-0.354-1.768 0-1.061 0.707-2.475-0.354-3.182-0.707-2.475-1.414 1.414 0.707 1.768 0.354 0.707 0M103.602 36.765c0-0.354 1.414-1.061 2.475-1.414-1.061 0.707-0.707 1.061 1.061 0.353 0 0.354-2.122 1.061-3.536 1.768 0.707-0.354 1.414-1.414 0-0.707M211.094 28.986c-1.061 0.354-4.95-1.768-8.84-2.475-2.122-0.707 8.486 1.768 8.84 2.475M2.475 203.66c2.122 8.84 0.707 8.486 0 0M2.829 150.621c0.354-1.414 0.707-5.304 1.06-4.95-1.061 8.486-2.829 12.376-3.182 18.74 1.061-5.657-0.354 3.182-0.707 5.304 0.354 2.829 0.354-1.768 1.061-1.06 0.707 1.061-1.414 15.912-0.707 7.779-0.707 7.425 0 15.558 1.414 17.679-1.768 11.315 7.072 36.773 8.84 42.077 0.354 0.354 0-1.768 0.707-0.353 0.707 4.597 3.889 7.779 4.95 12.729 1.061 1.414 5.304 9.193 6.011 10.962 1.414 2.829 2.122 2.475 3.536 5.303 4.243 8.133 10.961 15.912 17.326 23.337 20.508 24.044 51.978 43.845 86.984 50.918 35.006 7.425 71.779 2.122 100.419-11.669 1.768-1.061 1.414-1.414 3.536-2.122 9.901-3.182 21.923-13.436 28.641-17.326 3.182-3.536 11.669-9.547 12.73-13.082 6.011-4.95 12.022-13.083 15.204-18.387 1.768-2.829 3.182-2.829 3.889-4.597-0.354 0 5.657-7.425 7.426-11.668-0.707 0-1.768 2.122-1.768 0 12.729-24.398 19.801-57.282 15.911-79.912 0.707 27.934-6.365 59.05-19.801 78.851-6.011 12.729-18.387 26.519-29.701 36.42-1.768 1.768-3.536 3.889-5.658 5.304-6.718 5.657-14.144 10.254-21.922 14.497-18.387 10.254-38.895 19.094-62.94 19.447 41.37-3.536 78.497-24.398 99.006-49.856-15.558 15.204-22.276 21.215-39.602 30.055-1.414 2.475-13.083 7.425-20.862 9.547 4.597-2.122 14.144-5.657 17.326-8.486-25.812 12.376-54.453 19.448-81.326 15.558 10.254 0 24.751 0.354 38.541-2.121 2.122-0.707 3.182-1.414 5.658-1.768 26.873-6.011 52.685-19.094 71.072-37.481-10.608 9.547-26.519 20.862-36.774 24.398 9.547-5.304 26.873-15.558 32.53-23.337-11.315 11.315-32.53 22.63-45.966 27.58-2.122 0.354 1.414-1.414-2.122 0-4.243 1.061-2.475 1.061-3.536 1.768-16.265 4.597-35.006 8.486-50.563 7.072-2.829-0.354-3.889-1.061-6.365-1.061-2.829-0.354-5.304-0.354-8.486-0.354-12.376-1.414-25.812-6.365-35.713-10.607-5.304-2.475-10.608-4.243-15.912-7.426-4.243-2.475-7.779-5.304-11.314-8.132-13.436-9.901-24.751-19.801-35.36-33.945-19.094-26.519-28.994-59.757-27.58-92.641 1.414-32.884 14.497-65.061 35.359-88.752-1.061 1.061 1.414-2.475 3.536-4.596 0 0.707-0.354 1.768 2.122-0.707 2.122-2.475-0.707-0.707 0.353-2.122 21.923-24.044 60.111-43.492 99.36-44.199 1.414-1.061 3.889-2.475 6.718-1.768 0 0.354-1.768 0.354-1.768 0.354 3.889-0.354 7.425-0.354 9.193 0.353 0.354-0.354-1.414-0.707 0-0.707 2.475 0.707 3.182 0 4.597 0.707-1.061 0-2.122 0-2.829 0.354 8.84 0 14.497 2.122 23.337 2.829-4.597-1.061-5.657-1.061-9.193-2.122 3.889 0.707 5.657 1.414 7.425 1.061-0.707 0-0.354-1.061 0.354-0.707 7.072 1.768 7.779 2.475 15.204 4.95 0.707-0.707-3.182-1.061-4.243-2.122 7.072 2.475 13.436 4.243 17.68 7.072-1.414-1.061-5.657-2.475-8.84-3.889-0.354 0.354 1.061 0.707 1.414 1.414-3.536-1.768-8.486-3.536-13.436-4.243 4.243 1.061 7.072 2.475 8.84 3.182-3.889-0.707-8.84-3.182-14.498-4.243 9.193 2.829 26.519 9.193 37.127 14.851-3.889-2.475-8.486-4.243-10.961-5.657 2.122 0.354 4.597 1.768 4.597 1.06 2.475 1.061 5.657 3.536 7.425 3.89-3.182-2.122-9.547-5.304-11.668-6.365 26.519 12.022 50.21 32.177 65.414 57.989 1.414 2.475 3.536 8.133 5.304 8.84-0.354-1.768-1.768-2.829-3.182-5.657 0.707 0 0.707-1.061 0-2.122-1.414-1.768 0 1.414-1.415-0.354-6.365-11.669-14.144-21.923-26.165-33.237 6.718 6.365 1.768 1.768 0.353-0.354 9.193 8.133 19.801 21.923 24.398 28.995-0.707-1.061-1.061-1.768-0.707-1.768 8.486 14.497 13.79 27.58 19.094 46.32 0.354 0.354 0-1.414 0.707-0.353 3.536 14.851 4.597 27.227 4.243 38.541 2.829-19.094-3.536-48.796-14.851-72.133-1.414-2.829-1.414-0.707-2.829-3.889 0-1.061-1.061-3.182-1.768-4.597-14.144-23.337-31.47-39.956-51.978-53.038 1.414 0.707 4.243 2.829 4.244 2.475-38.188-25.105-82.387-28.641-118.807-20.862-2.475 1.061-3.536 2.122-6.365 3.536 5.304-1.768 8.486-2.122 13.437-3.183 1.061-1.061-4.597 0.354-2.122-0.707 0.354 0.354 4.95-0.707 6.011-0.353 0 0.354-1.414 0.707-1.768 1.06 11.669-2.475 23.691-2.829 33.945-2.121-6.011 0.354-16.972-0.707-20.508 1.061 3.536-0.354 8.486-0.707 11.668-0.354-4.243 0-12.022 0.354-15.558 0.707-0.354-0.354 5.657-1.061 1.768-1.06-1.768 0.354-4.597 0.354-5.657 1.414-30.409 2.829-60.111 18.74-80.973 37.481-4.243 3.536-9.193 7.425-12.375 11.314-7.779 8.84-12.729 17.68-18.387 25.459 3.536-7.425 11.315-18.74 20.508-28.287 9.193-9.547 19.094-17.68 24.398-21.923 0 1.414 8.486-5.304 11.669-7.425-2.122 1.768 1.414-0.707 2.121-0.354 11.315-6.718 20.508-9.193 30.763-13.083-2.475 0.707-4.597 1.414-4.951 1.061 2.475-0.707 3.889-1.414 3.536-1.768-9.901 2.829-25.459 9.547-37.834 16.972 22.276-15.204 50.564-24.398 78.497-24.751 27.934-0.707 55.16 6.365 76.729 17.68 14.497 6.365 28.287 18.033 39.249 29.348 3.182 2.829 0.707-0.707 5.304 4.243-1.414-0.707-2.475-1.414-0.707 0.707 2.829 3.182-0.707-2.475 3.889 3.182-0.354 0-1.768-1.768-1.768-1.061 12.376 10.961 21.923 30.762 27.58 43.846-1.414-5.304-4.95-12.729-7.779-18.033 8.486 15.558 11.315 24.751 14.851 38.541 1.414 1.061-0.707-4.95 0.707-2.121 0.354 2.122 0.707 8.84 2.122 9.9-1.061-6.718-2.829-14.851-4.243-16.265 1.061 0.707-1.768-8.133-3.536-10.254-0.707-5.657-5.657-15.558-9.901-22.984-15.204-29.702-42.431-54.099-72.839-67.536 0-0.707-1.768-1.414-2.476-2.121-30.055-12.729-66.122-16.265-100.773-8.133-35.006 8.486-67.889 28.641-91.227 57.636 1.061-3.536 9.901-10.254 10.255-13.083-10.254 10.961-21.215 25.459-28.641 41.016-7.779 15.558-12.022 31.47-13.79 43.138" fill="#9dd0e1" fill-rule="nonzero" stroke="none" stroke-width="1" stroke-linecap="butt" stroke-linejoin="miter" stroke-miterlimit="10" stroke-dasharray="" stroke-dashoffset="0" font-family="none" font-weight="none" font-size="none" text-anchor="none" style="mix-blend-mode: normal" data-fill-palette-color="tertiary"></path></g><g transform="matrix(1,0,0,1,48.000000000000014,94.12044510300953)"><svg viewBox="0 0 223.99999999999997 171.75910979398094" height="171.75910979398094" width="223.99999999999997"><g><svg viewBox="0 0 223.99999999999997 171.75910979398094" height="171.75910979398094" width="223.99999999999997"><g transform="matrix(1,0,0,1,0,106.15402048642038)"><svg viewBox="0 0 223.99999999999997 65.60508930756056" height="65.60508930756056" width="223.99999999999997"><g id="textblocktransform"><svg viewBox="0 0 223.99999999999997 65.60508930756056" height="65.60508930756056" width="223.99999999999997" id="textblock"><g><svg viewBox="0 0 223.99999999999997 65.60508930756056" height="65.60508930756056" width="223.99999999999997"><g transform="matrix(1,0,0,1,0,0)"><svg width="223.99999999999997" viewBox="4.650000095367432 -41.5 205.6800079345703 59.849998474121094" height="65.60508930756056" data-palette-color="#9dd0e1"><g class="undefined-text-0" data-fill-palette-color="primary" id="text-0"><path d="M9.5 3.8L9.5 3.8Q6.65 2.95 5.65 2.18 4.65 1.4 4.65 0.05L4.65 0.05Q4.65-1.45 5.35-4.17 6.05-6.9 7.18-10.25 8.3-13.6 9.75-17.25 11.2-20.9 12.7-24.25 14.2-27.6 15.63-30.38 17.05-33.15 18.15-34.7L18.15-34.7 17.8-36.8Q18.5-36.8 19.75-36.45 21-36.1 22.28-35.6 23.55-35.1 24.53-34.58 25.5-34.05 25.6-33.7L25.6-33.7Q25.35-32.5 25.2-30.08 25.05-27.65 25.05-24.9L25.05-24.9Q25.05-19.45 25.48-14.23 25.9-9 27.45-3.6L27.45-3.6Q28.25-7.6 29.18-11.58 30.1-15.55 31.1-19.18 32.1-22.8 33.1-25.9 34.1-29 35.02-31.33 35.95-33.65 36.75-34.98 37.55-36.3 38.2-36.4L38.2-36.4Q38.75-36.3 39.4-35.98 40.05-35.65 40.65-35.2 41.25-34.75 41.75-34.2 42.25-33.65 42.55-33.1L42.55-33.1Q40.95-32.45 39.38-30.05 37.8-27.65 36.38-24.23 34.95-20.8 33.73-16.8 32.5-12.8 31.58-8.93 30.65-5.05 30.13-1.75 29.6 1.55 29.55 3.55L29.55 3.55Q29.55 3.65 29.6 3.7L29.6 3.7Q29.45 3.75 29.28 3.75 29.1 3.75 28.95 3.75L28.95 3.75Q26.65 3.75 24.88 3.18 23.1 2.6 22.55 1.55L22.55 1.55Q21.5-2.65 20.8-6.55 20.1-10.45 19.63-14.35 19.15-18.25 18.88-22.23 18.6-26.2 18.45-30.55L18.45-30.55Q17.5-29.05 16.45-26.63 15.4-24.2 14.4-21.3 13.4-18.4 12.48-15.2 11.55-12 10.85-8.95 10.15-5.9 9.75-3.18 9.35-0.45 9.35 1.55L9.35 1.55Q9.35 2.6 9.38 3.05 9.4 3.5 9.5 3.8ZM56.9-20.7L56.9-20.7Q56.7-17.6 55.8-15.38 54.9-13.15 53.22-11.48 51.55-9.8 49.15-8.45 46.75-7.1 43.55-5.85L43.55-5.85Q43.55-5.55 43.52-5.23 43.5-4.9 43.5-4.55L43.5-4.55Q43.5-3.9 43.6-3.2 43.7-2.5 43.95-1.9 44.2-1.3 44.65-0.93 45.1-0.55 45.8-0.55L45.8-0.55Q47.15-0.55 48.45-1.15 49.75-1.75 50.92-2.63 52.1-3.5 53.12-4.53 54.15-5.55 54.95-6.4L54.95-6.4Q55.45-5.95 55.8-5.55L55.8-5.55Q53.55-2.55 50.87-0.58 48.2 1.4 45.8 1.95L45.8 1.95Q42.35 1.55 40.42-0.58 38.5-2.7 38.5-5.7L38.5-5.7Q38.5-7.75 39.07-9.88 39.65-12 40.67-13.98 41.7-15.95 43.07-17.7 44.45-19.45 46.02-20.75 47.6-22.05 49.27-22.8 50.95-23.55 52.6-23.55L52.6-23.55Q54.9-23.25 56.9-20.7ZM53.45-19.05L53.45-19.05Q52.1-18.85 50.65-17.95 49.2-17.05 47.92-15.55 46.65-14.05 45.6-12.05 44.55-10.05 43.95-7.75L43.95-7.75Q47.95-9.75 50.6-12.68 53.25-15.6 53.45-19.05ZM49.1 14.9L49.1 14.9Q49.1 14.6 49.3 14.35 49.5 14.1 49.75 13.85L49.75 13.85Q50.35 14.4 50.77 14.7 51.2 15 51.57 15.2 51.95 15.4 52.35 15.45 52.75 15.5 53.3 15.5L53.3 15.5Q55.9 15.5 58.25 14.13 60.6 12.75 62.67 10.15 64.75 7.55 66.45 3.8 68.15 0.05 69.45-4.7L69.45-4.7Q68.84-4.1 67.97-3.38 67.09-2.65 66.15-2 65.2-1.35 64.27-0.8 63.35-0.25 62.7 0L62.7 0Q61.85-0.15 61.12-0.73 60.4-1.3 59.85-2.15 59.3-3 59-4.08 58.7-5.15 58.7-6.35L58.7-6.35Q58.7-8.3 59.42-10.35 60.15-12.4 61.35-14.38 62.55-16.35 64.17-18.1 65.8-19.85 67.62-21.15 69.45-22.45 71.32-23.23 73.2-24 75-24L75-24Q76.75-24 77.62-23.28 78.5-22.55 78.9-20.8L78.9-20.8Q78.34-21.1 77.5-21.1L77.5-21.1Q76.3-21.1 74.72-20.15 73.15-19.2 71.52-17.68 69.9-16.15 68.3-14.18 66.7-12.2 65.47-10.15 64.25-8.1 63.47-6.15 62.7-4.2 62.7-2.65L62.7-2.65Q62.7-2.3 62.75-2.23 62.8-2.15 62.9-2.15L62.9-2.15Q63.35-2.15 64.12-2.65 64.9-3.15 65.87-3.93 66.84-4.7 67.9-5.73 68.95-6.75 69.9-7.8L69.9-7.8Q72.05-10.2 73.82-13.18 75.59-16.15 76.65-18.95L76.65-18.95Q78-18.85 79.05-18.5 80.09-18.15 80.5-17.75L80.5-17.75Q78.8-13.85 77.77-11.2 76.75-8.55 76-6.5L76-6.5Q74.65-2.9 73.47 0.08 72.3 3.05 71.07 5.58 69.84 8.1 68.42 10.28 67 12.45 65.2 14.45L65.2 14.45Q64.34 15.4 63.27 16.13 62.2 16.85 61.07 17.35 59.95 17.85 58.87 18.1 57.8 18.35 56.9 18.35L56.9 18.35Q55.7 18.35 54.45 18.07 53.2 17.8 52.12 17.32 51.05 16.85 50.25 16.23 49.45 15.6 49.1 14.9ZM98.94-20.2L98.94-20.2Q99.44-20.2 100.12-20.03 100.79-19.85 101.34-19.58 101.89-19.3 102.27-19 102.64-18.7 102.64-18.45L102.64-18.45Q101.64-16.35 100.79-14.23 99.94-12.1 99.34-10.15 98.74-8.2 98.42-6.5 98.09-4.8 98.09-3.55L98.09-3.55Q98.09-2.15 98.39-1.23 98.69-0.3 99.39 0.1L99.39 0.1Q98.79 0.5 97.84 0.75 96.89 1 96.14 1L96.14 1Q93.44 1 93.44-2.7L93.44-2.7Q93.44-5.55 95.34-10.5L95.34-10.5Q94.34-8.2 93.04-6.18 91.74-4.15 90.39-2.6 89.04-1.05 87.67-0.08 86.29 0.9 85.14 1.1L85.14 1.1Q83.29 1 82.14-0.68 80.99-2.35 80.99-4.95L80.99-4.95Q80.99-7.75 82.19-10.85 83.39-13.95 85.27-16.6 87.14-19.25 89.34-21.03 91.54-22.8 93.59-22.9L93.59-22.9Q94.09-22.75 94.72-22.3 95.34-21.85 95.92-21.25 96.49-20.65 96.89-20.03 97.29-19.4 97.34-18.95L97.34-18.95Q95.34-18.65 93.22-17 91.09-15.35 89.37-13.03 87.64-10.7 86.54-8.05 85.44-5.4 85.44-3.1L85.44-3.1Q85.44-2.15 86.14-1.9L86.14-1.9Q87.59-2.2 89.49-4.38 91.39-6.55 94.09-11.1L94.09-11.1Q94.59-12 95.22-13.1 95.84-14.2 96.49-15.4 97.14-16.6 97.77-17.82 98.39-19.05 98.94-20.2ZM103.99-1L103.99-1Q104.24-2.45 104.87-4.83 105.49-7.2 106.34-9.88 107.19-12.55 108.14-15.25 109.09-17.95 109.99-20.1L109.99-20.1Q110.64-21.65 111.14-22.53 111.64-23.4 112.24-24L112.24-24Q112.94-23.9 113.69-23.65 114.44-23.4 115.14-23.05 115.84-22.7 116.39-22.33 116.94-21.95 117.24-21.6L117.24-21.6Q115.89-20 114.87-17.95 113.84-15.9 112.79-12.7L112.79-12.7Q115.49-15.1 117.56-17.3 119.64-19.5 121.44-22.2L121.44-22.2Q121.74-22.45 122.49-22.45L122.49-22.45Q123.19-22.45 123.84-22.23 124.49-22 124.74-21.6L124.74-21.6Q123.84-19.2 123.84-16.85L123.84-16.85Q123.84-14.65 124.49-13.55L124.49-13.55Q124.44-13.25 123.81-12.4 123.19-11.55 122.44-10.8L122.44-10.8Q121.09-11.5 120.04-12.73 118.99-13.95 118.49-15.4L118.49-15.4Q116.14-13.75 114.49-12.18 112.84-10.6 111.67-8.68 110.49-6.75 109.67-4.25 108.84-1.75 108.09 1.7L108.09 1.7Q107.64 1.65 107.02 1.38 106.39 1.1 105.77 0.7 105.14 0.3 104.64-0.15 104.14-0.6 103.99-1ZM125.39-3.35L125.39-3.35Q125.39-3.8 125.46-4.48 125.54-5.15 125.74-6.28 125.94-7.4 126.26-9 126.59-10.6 127.09-12.85L127.09-12.85Q127.19-13.35 127.54-14.45 127.89-15.55 128.46-16.78 129.04-18 129.86-19.15 130.69-20.3 131.84-20.85L131.84-20.85Q132.69-20.65 134.09-19.83 135.49-19 136.49-17.55L136.49-17.55Q135.34-16.25 134.56-14.95 133.79-13.65 133.16-12.25 132.54-10.85 132.01-9.35 131.49-7.85 130.84-6.2L130.84-6.2Q130.29-4.8 129.84-3.33 129.39-1.85 129.34-0.75L129.34-0.75Q129.34 0.15 129.31 0.53 129.29 0.9 129.04 0.9L129.04 0.9Q128.84 0.9 128.24 0.65 127.64 0.4 127.01-0.13 126.39-0.65 125.89-1.45 125.39-2.25 125.39-3.35ZM134.94-25.05L134.94-25.05Q134.94-25.35 135.09-25.95L135.09-25.95Q134.84-26.2 134.66-26.7 134.49-27.2 134.49-27.6L134.49-27.6Q134.49-28.05 134.61-28.83 134.74-29.6 134.94-30.5 135.14-31.4 135.44-32.38 135.74-33.35 136.04-34.15L136.04-34.15Q136.64-34.15 137.51-33.83 138.39-33.5 139.29-32.98 140.19-32.45 140.94-31.83 141.69-31.2 142.09-30.65L142.09-30.65Q141.54-30.1 140.64-29.13 139.74-28.15 138.89-27.08 138.04-26 137.34-25.05 136.64-24.1 136.44-23.7L136.44-23.7Q135.84-23.8 135.39-24.23 134.94-24.65 134.94-25.05ZM145.24-24.25L145.24-24.25Q146.54-23.85 147.69-22.48 148.84-21.1 149.39-19.45L149.39-19.45Q148.84-18.1 147.69-16.2 146.54-14.3 145.39-12.33 144.24-10.35 143.31-8.58 142.39-6.8 142.24-5.65L142.24-5.65Q143.04-6.5 144.01-7.63 144.99-8.75 145.91-9.88 146.84-11 147.64-11.93 148.44-12.85 148.89-13.3L148.89-13.3Q149.84-14.3 151.14-15.63 152.44-16.95 153.86-18.13 155.29-19.3 156.74-20.13 158.19-20.95 159.39-20.95L159.39-20.95Q160.69-20.95 161.56-20.08 162.44-19.2 162.94-18.25L162.94-18.25Q162.94-18.15 162.56-17.98 162.19-17.8 161.49-17L161.49-17Q160.79-16.1 159.91-14.53 159.04-12.95 158.21-11.13 157.39-9.3 156.84-7.4 156.29-5.5 156.29-3.95L156.29-3.95Q156.29-2.7 156.61-2.35 156.94-2 157.54-2L157.54-2Q158.09-2 158.69-2.25 159.29-2.5 159.64-2.5L159.64-2.5Q159.84-2.4 159.96-2.08 160.09-1.75 160.09-1.5L160.09-1.5Q159.69-1.15 159.14-0.8 158.59-0.45 157.99-0.15 157.39 0.15 156.81 0.35 156.24 0.55 155.79 0.55L155.79 0.55Q154.34 0.55 153.41 0.13 152.49-0.3 151.96-1 151.44-1.7 151.24-2.68 151.04-3.65 151.04-4.75L151.04-4.75Q151.04-5.35 151.14-6.1 151.24-6.85 151.54-7.88 151.84-8.9 152.39-10.33 152.94-11.75 153.79-13.75L153.79-13.75Q153.69-13.75 152.44-13.05 151.19-12.35 149.74-10.9L149.74-10.9Q147.39-8.65 145.51-6.45 143.64-4.25 141.69-1.55L141.69-1.55Q140.59 0 139.76 1.07 138.94 2.15 138.34 2.5L138.34 2.5Q137.29 1.9 136.79 0.83 136.29-0.25 136.04-1.4L136.04-1.4Q136.04-2.35 136.31-3.8 136.59-5.25 137.06-7.03 137.54-8.8 138.24-10.75 138.94-12.7 139.79-14.65L139.79-14.65Q141.69-19.05 143.26-21.55 144.84-24.05 145.24-24.25ZM182.03-20.7L182.03-20.7Q181.83-17.6 180.93-15.38 180.03-13.15 178.36-11.48 176.68-9.8 174.28-8.45 171.88-7.1 168.68-5.85L168.68-5.85Q168.68-5.55 168.66-5.23 168.63-4.9 168.63-4.55L168.63-4.55Q168.63-3.9 168.73-3.2 168.83-2.5 169.08-1.9 169.33-1.3 169.78-0.93 170.23-0.55 170.93-0.55L170.93-0.55Q172.28-0.55 173.58-1.15 174.88-1.75 176.06-2.63 177.23-3.5 178.26-4.53 179.28-5.55 180.08-6.4L180.08-6.4Q180.58-5.95 180.93-5.55L180.93-5.55Q178.68-2.55 176.01-0.58 173.33 1.4 170.93 1.95L170.93 1.95Q167.48 1.55 165.56-0.58 163.63-2.7 163.63-5.7L163.63-5.7Q163.63-7.75 164.21-9.88 164.78-12 165.81-13.98 166.83-15.95 168.21-17.7 169.58-19.45 171.16-20.75 172.73-22.05 174.41-22.8 176.08-23.55 177.73-23.55L177.73-23.55Q180.03-23.25 182.03-20.7ZM178.58-19.05L178.58-19.05Q177.23-18.85 175.78-17.95 174.33-17.05 173.06-15.55 171.78-14.05 170.73-12.05 169.68-10.05 169.08-7.75L169.08-7.75Q173.08-9.75 175.73-12.68 178.38-15.6 178.58-19.05ZM184.28-0.85L184.28-0.85Q184.28-2.6 184.63-4.98 184.98-7.35 185.66-10.05 186.33-12.75 187.26-15.7 188.18-18.65 189.33-21.6L189.33-21.6Q190.33-24.25 191.66-26.95 192.98-29.65 194.53-32.25 196.08-34.85 197.76-37.2 199.43-39.55 201.13-41.5L201.13-41.5Q201.93-41.5 202.86-41.3 203.78-41.1 204.66-40.78 205.53-40.45 206.26-40 206.98-39.55 207.43-39.1L207.43-39.1Q203.68-35.25 200.68-31.33 197.68-27.4 195.93-23.95L195.93-23.95Q194.98-22.05 194.21-20.4 193.43-18.75 192.78-17.13 192.13-15.5 191.61-13.88 191.08-12.25 190.63-10.45L190.63-10.45Q200.23-22.7 204.88-22.7L204.88-22.7Q206.18-22.7 207.68-21.85 209.18-21 210.33-19.55L210.33-19.55Q208.78-17.85 207.13-15.45 205.48-13.05 204.11-10.63 202.73-8.2 201.86-6.13 200.98-4.05 200.98-3.05L200.98-3.05Q200.98-2.55 201.13-2.38 201.28-2.2 201.78-2.2L201.78-2.2Q202.53-2.2 202.98-2.4 203.43-2.6 203.53-2.6L203.53-2.6Q203.78-2.2 203.83-2.05 203.88-1.9 203.88-1.8L203.88-1.8Q203.88-1.6 203.28-1.23 202.68-0.85 201.86-0.48 201.03-0.1 200.23 0.2 199.43 0.5 199.03 0.5L199.03 0.5Q198.53 0.5 198.03 0.23 197.53-0.05 197.16-0.5 196.78-0.95 196.56-1.5 196.33-2.05 196.33-2.65L196.33-2.65Q196.33-3.4 196.76-4.88 197.18-6.35 197.93-8.33 198.68-10.3 199.73-12.65 200.78-15 201.98-17.45L201.98-17.45Q201.98-17.65 201.78-17.65L201.78-17.65Q201.63-17.65 201.01-17.25 200.38-16.85 199.83-16.45L199.83-16.45Q198.03-15.1 196.21-13.13 194.38-11.15 192.66-8.8 190.93-6.45 189.41-3.83 187.88-1.2 186.78 1.45L186.78 1.45Q186.63 1.8 186.33 2.1 186.03 2.4 185.83 2.4L185.83 2.4Q185.68 2.4 185.41 2.05 185.13 1.7 184.91 1.18 184.68 0.65 184.48 0.1 184.28-0.45 184.28-0.85Z" fill="#9dd0e1" data-fill-palette-color="primary"></path></g></svg></g></svg></g></svg></g></svg></g><g transform="matrix(1,0,0,1,76.92202456041375,0)"><svg viewBox="0 0 70.1559508791725 90.66623342304871" height="90.66623342304871" width="70.1559508791725"><g><svg xmlns="http://www.w3.org/2000/svg" xmlns:xlink="http://www.w3.org/1999/xlink" version="1.1" x="0" y="0" viewBox="12.982999801635742 1 75.68599700927734 97.81300354003906" enable-background="new 0 0 100 100" xml:space="preserve" height="90.66623342304871" width="70.1559508791725" class="icon-icon-0" data-fill-palette-color="accent" id="icon-0"><g fill="#9dd0e1" data-fill-palette-color="accent"><polygon fill-rule="evenodd" clip-rule="evenodd" points="12.983,10.59 30.001,98.813 24.129,39.764 53.15,37.872 53.096,27.989    64.549,1 53.622,18.977  " fill="#9dd0e1" data-fill-palette-color="accent"></polygon><polygon fill-rule="evenodd" clip-rule="evenodd" points="59.389,54.548 64.549,1.007 55.809,40.723 36.197,41.768 37.767,62.23    30.001,98.813 42.058,58.914  " fill="#9dd0e1" data-fill-palette-color="accent"></polygon><polygon fill-rule="evenodd" clip-rule="evenodd" points="62.8,67.182 63.349,56.729 47.37,60.484 47.338,72.281 30.001,98.813    51.681,71.197  " fill="#9dd0e1" data-fill-palette-color="accent"></polygon><polygon fill-rule="evenodd" clip-rule="evenodd" points="65.711,62.394 80.552,57.663 82.061,45.131 66.162,47.226  " fill="#9dd0e1" data-fill-palette-color="accent"></polygon><polygon fill-rule="evenodd" clip-rule="evenodd" points="72.07,44.502 83.058,43.085 84.639,32.807 76.56,32.434 64.549,1    72.979,31.967  " fill="#9dd0e1" data-fill-palette-color="accent"></polygon><polygon fill-rule="evenodd" clip-rule="evenodd" points="87.413,31.294 88.669,21.788 79.125,19.094 64.549,1 79.032,23.437    78.61,30.437  " fill="#9dd0e1" data-fill-palette-color="accent"></polygon></g></svg></g></svg></g><g></g></svg></g></svg></g></svg></g><defs></defs></svg><rect width="320" height="360" fill="none" stroke="none" visibility="hidden"></rect></g></svg></g></svg>